inDegrees=no
num_controls=7
num_derivatives=13
num_iterations=85
num_multipliers=7
num_parameters=0
num_slacks=7
num_states=26
objective=0.412610
objective_accelerations=0.065166
objective_balance=0.001727
objective_effort=0.053716
objective_height=0.286138
objective_ligament=0.005863
solver_duration=990.128839
status=Solve_Succeeded
success=true
DataType=double
version=3
OpenSimVersion=4.5
endheader
time	/jointset/ground_pelvis/pelvis_tilt/value	/jointset/ground_pelvis/pelvis_tx/value	/jointset/ground_pelvis/pelvis_ty/value	/jointset/hip_r/hip_flexion_r/value	/jointset/hip_r/hip_adduction_r/value	/jointset/hip_r/hip_rotation_r/value	/jointset/back/lumbar_extension/value	/jointset/patellofemoral_r/patellar_flexion_r/value	/jointset/knee_r/knee_flexion_r/value	/jointset/knee_r/knee_adduction_r/value	/jointset/knee_r/knee_rotation_r/value	/jointset/ankle_r/ankle_angle_r/value	/jointset/subtalar_r/subtalar_angle_r/value	/jointset/ground_pelvis/pelvis_tilt/speed	/jointset/ground_pelvis/pelvis_tx/speed	/jointset/ground_pelvis/pelvis_ty/speed	/jointset/hip_r/hip_flexion_r/speed	/jointset/hip_r/hip_adduction_r/speed	/jointset/hip_r/hip_rotation_r/speed	/jointset/back/lumbar_extension/speed	/jointset/patellofemoral_r/patellar_flexion_r/speed	/jointset/knee_r/knee_flexion_r/speed	/jointset/knee_r/knee_adduction_r/speed	/jointset/knee_r/knee_rotation_r/speed	/jointset/ankle_r/ankle_angle_r/speed	/jointset/subtalar_r/subtalar_angle_r/speed	/forceset/tau_hip_flexion_r	/forceset/tau_hip_adduction_r	/forceset/tau_hip_rotation_r	/forceset/tau_knee_flexion_r	/forceset/tau_ankle_angle_r	/forceset/tau_subtalar_angle_r	/forceset/tau_lumbar_extension	lambda_cid13_p0	lambda_cid14_p0	lambda_cid14_p1	lambda_cid14_p2	lambda_cid14_p3	lambda_cid14_p4	lambda_cid14_p5	/jointset/ground_pelvis/pelvis_tilt/accel	/jointset/ground_pelvis/pelvis_tx/accel	/jointset/ground_pelvis/pelvis_ty/accel	/jointset/hip_r/hip_flexion_r/accel	/jointset/hip_r/hip_adduction_r/accel	/jointset/hip_r/hip_rotation_r/accel	/jointset/back/lumbar_extension/accel	/jointset/patellofemoral_r/patellar_flexion_r/accel	/jointset/knee_r/knee_flexion_r/accel	/jointset/knee_r/knee_adduction_r/accel	/jointset/knee_r/knee_rotation_r/accel	/jointset/ankle_r/ankle_angle_r/accel	/jointset/subtalar_r/subtalar_angle_r/accel	gamma_cid13_p0	gamma_cid14_p0	gamma_cid14_p1	gamma_cid14_p2	gamma_cid14_p3	gamma_cid14_p4	gamma_cid14_p5
0	0.006006755584868928	0.1247920079201265	0.9350992889311752	0.1934211968871041	-0.2055546968548636	-0.235942155757546	-0.2903787966825928	0.2311786273363335	0.2311786273363406	0.08402825899602648	0.1540403390386214	0.089344008118978	0.09188795309028944	0	0	0	0	0	0	0	0	0	0	0	0	0	0.1380071980092526	-0.02937658771169727	0.0009005595851172727	-0.2268267336294084	0.083657104006743	-0.06565222969476359	-0.06605208288544318	-29.23132039342891	-17.11910011207748	-27.71284105433279	0.5026282387609708	27.51230454501835	-574.6458844858054	39.34986058152553	-3.389895491532139	-3.270648023398788	-1.522772226703844	17.21432867900565	-0.1399248123046447	3.063217148927926	-8.974723031881247	17.27293106821373	17.27293106821378	-4.207649505369776	0.9592205865545045	4.441562630461876	1.181106109307103	1.286287259053769e-07	4.37571782794366e-08	-1.151456600634364e-06	6.203230112507297e-07	6.896783696416978e-08	4.691002672445435e-07	-8.356716494336592e-07
0.01	0.005848488940189392	0.1246313080229997	0.9350251523084993	0.1942577136004879	-0.2055613352562471	-0.2357916714754188	-0.2908295859735365	0.2320269159942445	0.2320269159942345	0.08382111058198802	0.1540871795235184	0.08956297898818628	0.09194651541953834	-0.03149462874007013	-0.03189371795109595	-0.01479942855794356	0.1663838072253631	-0.001449336825278882	0.02970118237948993	-0.08933131773068519	0.1689030209877416	0.1689030209877411	-0.04098683333444057	0.009620233987015248	0.04368571088120975	0.01153558134083134	0.1313695609028004	-0.03668863604071618	0.00111979586725844	-0.2226552234080671	0.07872146561510814	-0.05759870816243232	-0.05967903594635832	-29.24230122304238	-18.25413609091184	-24.23052094467741	-0.2620511529726319	26.11389649344046	-576.7935371171594	46.15150908190385	-3.005451093021252	-3.111780664791575	-1.454249953776604	16.21247301967884	-0.165749553538166	2.864360233271158	-8.788355076009195	16.58575529919868	16.58575529919863	-3.977901883339123	1.001376662818303	4.315832056753067	1.11314415924925	9.328216654546796e-08	-4.571673602600065e-09	-8.583252633529319e-07	3.543982684295153e-07	8.445532144146571e-08	1.387547969552056e-07	-5.333952708453383e-07
0.02	0.005380035102573249	0.1241590615495983	0.9348038770435565	0.196730481641212	-0.2055861293130736	-0.2353560170793323	-0.2921488922282526	0.2345415883990417	0.2345415883990287	0.08321735350741515	0.1542378127199126	0.09021555831416779	0.09211510556475075	-0.06203743859128927	-0.06230931525490564	-0.02942772845338697	0.3272502654658346	-0.003631131086488278	0.05703402279144341	-0.1737033927553363	0.3332767493812557	0.3332767493812548	-0.07932173210319657	0.02075854229575748	0.08672169135452661	0.02200556319279121	0.124731923796306	-0.04400068436974697	0.001339032149476672	-0.2184837131867638	0.07378582722344834	-0.04954518663012355	-0.05330598900729337	-29.27461829784103	-19.24960669250227	-20.74491630135444	-1.003090369008316	24.76666482019729	-576.710758854605	52.59850216550626	-3.199531713762506	-2.97502389394101	-1.488546494203841	16.11085888202728	-0.2864162994907249	2.589548755420616	-7.982874490674795	16.36707254936814	16.3670725493682	-3.677262592232887	1.26283545089985	4.311616548883873	0.9679862115330176	5.793560718555905e-08	-5.290052548463673e-08	-5.651939260715001e-07	8.847352560830092e-08	9.994280591876162e-08	-1.915906733341323e-07	-2.311188922570175e-07
0.03	0.004609717502243608	0.1233894630006997	0.934436490597398	0.2007863432001258	-0.2056342759028583	-0.2346572918634918	-0.2942882594916292	0.2386760564995575	0.2386760564995604	0.08223966005383915	0.1545037175121624	0.09129420733654435	0.09238540892543445	-0.09188268642401966	-0.0914205098553502	-0.04407082265371483	0.4830769386530663	-0.005875156155189857	0.08250555752365088	-0.2535714215963454	0.4927009196627927	0.4927009196627924	-0.1162216483978016	0.03225050202511981	0.1288041674409137	0.03215437669604119	0.1186767469949384	-0.04053574500304206	0.00150832872906982	-0.2153441013615652	0.07155049358930828	-0.04970037239821969	-0.04801646725199646	-29.32669125949567	-19.88360463263254	-20.91646877387573	-0.9835692829317004	23.96540562792508	-576.0566254536218	51.2757856839843	-2.855508826974118	-2.850664490147178	-1.455419817192968	15.19180389961558	-0.175002025798587	2.495171615641315	-7.898971333282673	15.59268516380526	15.59268516380529	-3.697142525197534	1.066615845445145	4.125979696678125	1.053142387819407	7.505823292969026e-08	-8.715986272493381e-08	-6.885468622551062e-07	1.092001960917968e-07	1.43928138712982e-07	-4.309450975370341e-07	-2.857508760159643e-07
0.04	0.003545249921819381	0.1223344530563881	0.9339220274223872	0.2063751179634355	-0.2057011840263877	-0.2337100081436232	-0.2972083478939038	0.2443772854821636	0.2443772854821502	0.08089281016190894	0.1548793898239455	0.09278756443141778	0.0927601631147698	-0.1208674346146784	-0.1193915943375272	-0.05884307422383469	0.6338329063420796	-0.007383437833424965	0.1067457235966844	-0.3298476205361831	0.6466289257946845	0.6466289257946838	-0.1531530197773341	0.04271204621411472	0.1696633058537889	0.04289572892323216	0.1126215701935748	-0.03707080563635424	0.001677625308327939	-0.2122044895363455	0.06931515995516839	-0.04985555816633339	-0.04272694549669682	-29.39522366699986	-20.39485513354528	-21.08705209642159	-0.9407582157033144	23.1864618663131	-573.4486385089482	49.64792091566934	-3.027431785348714	-2.747001870287007	-1.514377968162265	15.09671778238351	-0.1392676213974266	2.343275023585812	-7.264508510440876	15.26783971943902	15.26783971943889	-3.683553609218368	1.056752342826327	4.06694901418204	1.086493956321399	9.326269754194604e-08	-1.211291068798342e-07	-8.20487103046239e-07	1.358372049939465e-07	1.885010560085822e-07	-6.684234176969166e-07	-3.477417950810404e-07
0.05	0.002193846517558017	0.1210055484292733	0.9332583333527064	0.2134479723578304	-0.205782113674023	-0.2325237577286671	-0.3008715203496289	0.2515920922322713	0.2515920922322633	0.07918214810259444	0.1553533765821529	0.09468341910657124	0.09324204603760559	-0.1492696185149296	-0.1461834922307022	-0.07397800340981622	0.7798913002555852	-0.008873050703837544	0.1305065488002672	-0.4021664034458352	0.7955108701408031	0.7955108701408032	-0.1885464304386483	0.05181227689644741	0.2093019174247026	0.0533386320610905	0.1059385124287073	-0.03702434319672347	0.001993061280071744	-0.2095568649822963	0.06704553001777414	-0.04739564678511782	-0.03722561439169377	-29.47615673108294	-20.69661492345888	-20.06522296693497	-1.110892705222854	22.10029652101126	-570.0560580754552	50.3916751367767	-2.725054264097631	-2.614369858917523	-1.525525552203	14.23339895289781	-0.1644691647202994	2.392868287271797	-7.122493107717654	14.57511987928067	14.57511987928086	-3.402407328892344	0.795744503166075	3.881469252989569	1.001744464954293	8.770234954229926e-08	-1.406850631828472e-07	-8.317478474147482e-07	-6.769471784604272e-08	2.04260951787336e-07	-7.924705975827257e-07	-2.090415071770847e-07
